{
  "asset": {
    "version": "2.0",
    "generator": "THREE.GLTFExporter"
  },
  "scenes": [
    {
      "nodes": [
        0
      ]
    }
  ],
  "scene": 0,
  "nodes": [
    {
      "children": [
        9
      ],
      "matrix": [
        0.01,
        0,
        0,
        0,
        0,
        0.01,
        0,
        0,
        0,
        0,
        0.01,
        0,
        0,
        0,
        0,
        1
      ]
    },
    {
      "matrix": [
        0.9999999999999981,
        6.139973998975805e-8,
        -2.197774537034113e-9,
        0,
        -6.143906154658882e-8,
        0.9993599909269273,
        -0.035771616325349524,
        0,
        -2.0679515313825692e-24,
        0.035771616325349594,
        0.9993599909269292,
        0,
        -2.4164875747641732e-21,
        23.989127537506306,
        686.9587322001664,
        1
      ],
      "name": "Camera",
      "camera": 0
    },
    {
      "matrix": [
        1,
        0,
        0,
        0,
        0,
        1,
        0,
        0,
        0,
        0,
        1,
        0,
        0,
        1.4422167983293548,
        0.053447920857287556,
        1
      ],
      "name": "Top",
      "mesh": 0
    },
    {
      "matrix": [
        -1,
        -1.2246467991473532e-16,
        0,
        0,
        1.2246467991473532e-16,
        -1,
        0,
        0,
        0,
        0,
        1,
        0,
        0,
        0,
        0,
        1
      ],
      "name": "Bottomn",
      "mesh": 1
    },
    {
      "matrix": [
        1,
        0,
        0,
        0,
        0,
        2.220446049250313e-16,
        -1,
        0,
        0,
        1,
        2.220446049250313e-16,
        0,
        0,
        1.4422167983293548,
        -2.220446049250313e-16,
        1
      ],
      "name": "Ellipse",
      "mesh": 2
    },
    {
      "matrix": [
        0.9743700647852352,
        0.224951054343865,
        0,
        0,
        -0.224951054343865,
        0.9743700647852352,
        0,
        0,
        0,
        0,
        1,
        0,
        0,
        0,
        0,
        1
      ],
      "name": "Group",
      "children": [
        2,
        3,
        4
      ]
    },
    {
      "matrix": [
        0.5883484054145521,
        0.39223227027636803,
        -0.7071067811865475,
        0,
        -0.554700196225229,
        0.8320502943378437,
        0,
        0,
        0.588348405414552,
        0.392232270276368,
        0.7071067811865476,
        0,
        0,
        0,
        0,
        1
      ],
      "name": "Directional Light",
      "extensions": {
        "KHR_lights_punctual": {
          "light": 0
        }
      }
    },
    {
      "matrix": [
        1,
        0,
        0,
        0,
        0,
        1,
        -5.917244634910895e-17,
        0,
        0,
        5.917244634910895e-17,
        1,
        0,
        -7.4236833625072105,
        21.567831483503742,
        669.3182345939658,
        1
      ],
      "camera": 1
    },
    {
      "matrix": [
        1,
        0,
        0,
        0,
        0,
        1,
        0,
        0,
        0,
        0,
        1,
        0,
        0,
        1,
        0,
        1
      ],
      "name": "Default Ambient Light"
    },
    {
      "name": "Scene 1",
      "children": [
        1,
        5,
        6,
        7,
        8
      ]
    }
  ],
  "cameras": [
    {
      "type": "orthographic",
      "orthographic": {
        "xmag": 2.3904054054054056,
        "ymag": 3.375837837837838,
        "zfar": 100000,
        "znear": 0
      },
      "name": "Camera"
    },
    {
      "type": "orthographic",
      "orthographic": {
        "xmag": 3.6019502640625,
        "ymag": 5.086835883125,
        "zfar": 100000,
        "znear": 0
      }
    }
  ],
  "bufferViews": [
    {
      "buffer": 0,
      "byteOffset": 0,
      "byteLength": 50700,
      "target": 34962,
      "byteStride": 12
    },
    {
      "buffer": 0,
      "byteOffset": 50700,
      "byteLength": 50700,
      "target": 34962,
      "byteStride": 12
    },
    {
      "buffer": 0,
      "byteOffset": 101400,
      "byteLength": 33800,
      "target": 34962,
      "byteStride": 8
    },
    {
      "buffer": 0,
      "byteOffset": 135200,
      "byteLength": 48768,
      "target": 34963
    },
    {
      "buffer": 0,
      "byteOffset": 183968,
      "byteLength": 50700,
      "target": 34962,
      "byteStride": 12
    },
    {
      "buffer": 0,
      "byteOffset": 234668,
      "byteLength": 50700,
      "target": 34962,
      "byteStride": 12
    },
    {
      "buffer": 0,
      "byteOffset": 285368,
      "byteLength": 33800,
      "target": 34962,
      "byteStride": 8
    },
    {
      "buffer": 0,
      "byteOffset": 319168,
      "byteLength": 48768,
      "target": 34963
    },
    {
      "buffer": 0,
      "byteOffset": 367936,
      "byteLength": 2304,
      "target": 34962,
      "byteStride": 12
    },
    {
      "buffer": 0,
      "byteOffset": 370240,
      "byteLength": 2304,
      "target": 34962,
      "byteStride": 12
    },
    {
      "buffer": 0,
      "byteOffset": 372544,
      "byteLength": 1536,
      "target": 34962,
      "byteStride": 8
    },
    {
      "buffer": 0,
      "byteOffset": 374080,
      "byteLength": 2256,
      "target": 34963
    }
  ],
  "buffers": [
    {
      "byteLength": 376336,
      "uri": "data:application/octet-stream;base64,"
    }
  ],
  "accessors": [
    {
      "bufferView": 0,
      "componentType": 5126,
      "count": 4225,
      "max": [
        86.6463394165039,
        86.6463394165039,
        86.6463394165039
      ],
      "min": [
        -86.6463394165039,
        5.305558154134393e-15,
        -86.6463394165039
      ],
      "type": "VEC3"
    },
    {
      "bufferView": 1,
      "componentType": 5126,
      "count": 4225,
      "max": [
        1,
        1,
        1
      ],
      "min": [
        -1,
        6.123234262925839e-17,
        -1
      ],
      "type": "VEC3"
    },
    {
      "bufferView": 2,
      "componentType": 5126,
      "count": 4225,
      "max": [
        1.0078125,
        1
      ],
      "min": [
        0,
        0
      ],
      "type": "VEC2"
    },
    {
      "bufferView": 3,
      "componentType": 5123,
      "count": 24384,
      "max": [
        4224
      ],
      "min": [
        0
      ],
      "type": "SCALAR"
    },
    {
      "bufferView": 4,
      "componentType": 5126,
      "count": 4225,
      "max": [
        72.51031494140625,
        72.51031494140625,
        72.51031494140625
      ],
      "min": [
        -72.51031494140625,
        4.439976455884644e-15,
        -72.51031494140625
      ],
      "type": "VEC3"
    },
    {
      "bufferView": 5,
      "componentType": 5126,
      "count": 4225,
      "max": [
        1,
        1,
        1
      ],
      "min": [
        -1,
        6.123234262925839e-17,
        -1
      ],
      "type": "VEC3"
    },
    {
      "bufferView": 6,
      "componentType": 5126,
      "count": 4225,
      "max": [
        1.0078125,
        1
      ],
      "min": [
        0,
        0
      ],
      "type": "VEC2"
    },
    {
      "bufferView": 7,
      "componentType": 5123,
      "count": 24384,
      "max": [
        4224
      ],
      "min": [
        0
      ],
      "type": "SCALAR"
    },
    {
      "bufferView": 8,
      "componentType": 5126,
      "count": 192,
      "max": [
        250,
        250,
        3
      ],
      "min": [
        -250,
        -250,
        0
      ],
      "type": "VEC3"
    },
    {
      "bufferView": 9,
      "componentType": 5126,
      "count": 192,
      "max": [
        0.9977446794509888,
        0.9977446794509888,
        1
      ],
      "min": [
        -0.9977446794509888,
        -0.9977446794509888,
        -1
      ],
      "type": "VEC3"
    },
    {
      "bufferView": 10,
      "componentType": 5126,
      "count": 192,
      "max": [
        1,
        1
      ],
      "min": [
        0,
        0
      ],
      "type": "VEC2"
    },
    {
      "bufferView": 11,
      "componentType": 5125,
      "count": 564,
      "max": [
        191
      ],
      "min": [
        0
      ],
      "type": "SCALAR"
    }
  ],
  "meshes": [
    {
      "primitives": [
        {
          "mode": 4,
          "attributes": {
            "POSITION": 0,
            "NORMAL": 1,
            "TEXCOORD_0": 2
          },
          "extras": {
            "parameters": {
              "width": 173.2926754858736,
              "widthSegments": 64,
              "heightSegments": 64,
              "phiStart": 0,
              "phiLength": 6.283185307179586,
              "thetaStart": 0,
              "thetaLength": 90,
              "height": 173.2926754858736,
              "depth": 173.2926754858736,
              "type": "SphereGeometry"
            },
            "type": "SphereGeometry"
          },
          "indices": 3
        }
      ]
    },
    {
      "primitives": [
        {
          "mode": 4,
          "attributes": {
            "POSITION": 4,
            "NORMAL": 5,
            "TEXCOORD_0": 6
          },
          "extras": {
            "parameters": {
              "width": 145.020637346897,
              "widthSegments": 64,
              "heightSegments": 64,
              "phiStart": 0,
              "phiLength": 6.283185307179586,
              "thetaStart": 0,
              "thetaLength": 90,
              "height": 145.020637346897,
              "depth": 145.020637346897,
              "type": "SphereGeometry"
            },
            "type": "SphereGeometry"
          },
          "indices": 7
        }
      ]
    },
    {
      "primitives": [
        {
          "mode": 4,
          "attributes": {
            "POSITION": 8,
            "NORMAL": 9,
            "TEXCOORD_0": 10
          },
          "extras": {
            "parameters": {
              "width": 500,
              "subdivisions": 12,
              "roundness": 0,
              "extrudeBevelSize": 0,
              "extrudeBevelSegments": 1,
              "windingRule": 0,
              "depth": 3,
              "spikes": 64,
              "angle": 360,
              "innerRadius": 0,
              "height": 500,
              "type": "VectorGeometry",
              "shape": {
                "isClosed": true,
                "points": [
                  {
                    "id": "b214cf5c-db1e-4cd1-aaf8-09989cc1f887",
                    "fi": 0,
                    "data": {
                      "position": [
                        -250,
                        0
                      ],
                      "controlNext": {
                        "position": [
                          -250,
                          138.07118745
                        ]
                      },
                      "controlPrevious": {
                        "position": [
                          -250,
                          -138.07118745
                        ]
                      },
                      "areControlsDirectionsMirrored": true,
                      "roundness": 0
                    }
                  },
                  {
                    "id": "d9e410d6-581d-4b39-bce6-a7b10ce5980e",
                    "fi": 1,
                    "data": {
                      "position": [
                        0,
                        250
                      ],
                      "controlNext": {
                        "position": [
                          138.07118745,
                          250
                        ]
                      },
                      "controlPrevious": {
                        "position": [
                          -138.07118745,
                          250
                        ]
                      },
                      "areControlsDirectionsMirrored": true,
                      "roundness": 0
                    }
                  },
                  {
                    "id": "8b0f8e10-23d0-4d04-b5b5-f08e44331b28",
                    "fi": 2,
                    "data": {
                      "position": [
                        250,
                        0
                      ],
                      "controlNext": {
                        "position": [
                          250,
                          -138.07118745
                        ]
                      },
                      "controlPrevious": {
                        "position": [
                          250,
                          138.07118745
                        ]
                      },
                      "areControlsDirectionsMirrored": true,
                      "roundness": 0
                    }
                  },
                  {
                    "id": "a6894986-6299-4205-9bbd-7e0e82ec464a",
                    "fi": 3,
                    "data": {
                      "position": [
                        0,
                        -250
                      ],
                      "controlNext": {
                        "position": [
                          -138.07118745,
                          -250
                        ]
                      },
                      "controlPrevious": {
                        "position": [
                          138.07118745,
                          -250
                        ]
                      },
                      "areControlsDirectionsMirrored": true,
                      "roundness": 0
                    }
                  }
                ],
                "roundness": 0,
                "shapeHoles": []
              }
            },
            "shape": {
              "points": [
                -250,
                0,
                -250,
                -138.07118745,
                -250,
                138.07118745,
                0,
                0,
                250,
                -138.07118745,
                250,
                138.07118745,
                250,
                0,
                250,
                0,
                250,
                138.07118745,
                250,
                -138.07118745,
                0,
                0,
                -250,
                138.07118745,
                -250,
                -138.07118745,
                -250,
                0
              ],
              "shapeHoles": [],
              "isClosed": true,
              "roundness": 0
            },
            "type": "VectorGeometry"
          },
          "indices": 11
        }
      ]
    }
  ],
  "extensions": {
    "KHR_lights_punctual": {
      "lights": [
        {
          "name": "Directional Light",
          "color": [
            1,
            1,
            1
          ],
          "intensity": 0.7,
          "type": "directional"
        }
      ]
    }
  },
  "extensionsUsed": [
    "KHR_lights_punctual"
  ]
}